<svg width="50" height="36" viewBox="0 0 50 36" fill="none" xmlns="http://www.w3.org/2000/svg">
<g filter="url(#filter0_d_2906_29301)">
<path d="M24.7341 0H11.2659C5.04391 0 0 5.04391 0 11.2659V24.7341C0 30.9561 5.04391 36 11.2659 36H24.7341C30.9561 36 36 30.9561 36 24.7341V11.2659C36 5.04391 30.9561 0 24.7341 0Z" fill="url(#paint0_linear_2906_29301)"/>
<mask id="mask0_2906_29301" style="mask-type:luminance" maskUnits="userSpaceOnUse" x="6" y="6" width="24" height="24">
<path d="M29.1181 6.88477H6.88281V29.1201H29.1181V6.88477Z" fill="white"/>
</mask>
<g mask="url(#mask0_2906_29301)">
<path d="M17.6138 25.6846L17.6082 25.6812L17.5871 25.6701L17.5126 25.6312L17.2425 25.4811C15.8873 24.7109 14.6089 23.813 13.4247 22.7995C11.379 21.0352 9.10547 18.3881 9.10547 15.2173C9.10557 14.1828 9.4264 13.1737 10.0237 12.3291C10.6211 11.4844 11.4656 10.8457 12.441 10.5009C13.4164 10.1561 14.4747 10.1221 15.4702 10.4037C16.4656 10.6853 17.3494 11.2686 17.9996 12.0732C18.6499 11.2686 19.5336 10.6853 20.529 10.4037C21.5245 10.1221 22.5828 10.1561 23.5582 10.5009C24.5336 10.8457 25.3781 11.4844 25.9754 12.3291C26.5728 13.1737 26.8936 14.1828 26.8937 15.2173C26.8937 18.3881 24.6213 21.0352 22.5745 22.7995C21.2899 23.8977 19.895 24.8596 18.4121 25.6701L18.3909 25.6812L18.3854 25.6846H18.3831C18.265 25.747 18.1334 25.7798 17.9997 25.78C17.8661 25.7802 17.7344 25.7478 17.616 25.6857L17.6138 25.6846Z" fill="white"/>
<g filter="url(#filter1_d_2906_29301)">
<path d="M20.5312 10.4037C21.5267 10.1222 22.585 10.1561 23.5604 10.5009C24.5357 10.8457 25.3801 11.4844 25.9774 12.329C26.5747 13.1736 26.8954 14.1825 26.8956 15.217C26.8956 18.3878 24.6233 21.035 22.5765 22.7994C21.2919 23.8975 19.897 24.8593 18.4141 25.6698L18.3929 25.6811L18.3872 25.6843H18.3852C18.267 25.7467 18.1352 25.7797 18.0015 25.7799C17.868 25.78 17.7362 25.7474 17.6179 25.6853L17.6159 25.6843L17.6102 25.6811L17.589 25.6698L17.5145 25.631L17.2446 25.4811C15.8895 24.7109 14.6108 23.8128 13.4266 22.7994C11.9813 21.5528 10.4234 19.8652 9.63281 17.8641C11.5043 18.876 13.8713 18.3079 15.0665 16.4992L17.9959 12.0664C17.9977 12.0686 17.9997 12.0708 18.0015 12.0731C18.6518 11.2685 19.5358 10.6853 20.5312 10.4037Z" fill="white"/>
</g>
</g>
</g>
<defs>
<filter id="filter0_d_2906_29301" x="-14" y="-14" width="64" height="64" filterUnits="userSpaceOnUse" color-interpolation-filters="sRGB">
<feFlood flood-opacity="0" result="BackgroundImageFix"/>
<feColorMatrix in="SourceAlpha" type="matrix" values="0 0 0 0 0 0 0 0 0 0 0 0 0 0 0 0 0 0 127 0" result="hardAlpha"/>
<feOffset/>
<feGaussianBlur stdDeviation="7"/>
<feComposite in2="hardAlpha" operator="out"/>
<feColorMatrix type="matrix" values="0 0 0 0 0 0 0 0 0 0 0 0 0 0 0 0 0 0 0.05 0"/>
<feBlend mode="normal" in2="BackgroundImageFix" result="effect1_dropShadow_2906_29301"/>
<feBlend mode="normal" in="SourceGraphic" in2="effect1_dropShadow_2906_29301" result="shape"/>
</filter>
<filter id="filter1_d_2906_29301" x="-0.367188" y="3.21484" width="33.2617" height="31.5645" filterUnits="userSpaceOnUse" color-interpolation-filters="sRGB">
<feFlood flood-opacity="0" result="BackgroundImageFix"/>
<feColorMatrix in="SourceAlpha" type="matrix" values="0 0 0 0 0 0 0 0 0 0 0 0 0 0 0 0 0 0 127 0" result="hardAlpha"/>
<feOffset dx="-2" dy="1"/>
<feGaussianBlur stdDeviation="4"/>
<feComposite in2="hardAlpha" operator="out"/>
<feColorMatrix type="matrix" values="0 0 0 0 0.643137 0 0 0 0 0.67451 0 0 0 0 0.976471 0 0 0 1 0"/>
<feBlend mode="normal" in2="BackgroundImageFix" result="effect1_dropShadow_2906_29301"/>
<feBlend mode="normal" in="SourceGraphic" in2="effect1_dropShadow_2906_29301" result="shape"/>
</filter>
<linearGradient id="paint0_linear_2906_29301" x1="11.3824" y1="-4.23529" x2="20.9118" y2="34.9412" gradientUnits="userSpaceOnUse">
<stop stop-color="#D6C4FD"/>
<stop offset="1" stop-color="#96A5F7"/>
</linearGradient>
</defs>
</svg>
